<?xml version="1.0" encoding="UTF-8" standalone="no"?>
<!DOCTYPE svg PUBLIC "-//W3C//DTD SVG 1.1//EN"
 "http://www.w3.org/Graphics/SVG/1.1/DTD/svg11.dtd">
<!-- Generated by graphviz version 12.2.1 (20241206.2353)
 -->
<!-- Title: G Pages: 1 -->
<svg width="2486pt" height="2952pt"
 viewBox="0.00 0.00 1193.25 1417.00" xmlns="http://www.w3.org/2000/svg" xmlns:xlink="http://www.w3.org/1999/xlink">
<g id="graph0" class="graph" transform="scale(2.08333 2.08333) rotate(0) translate(4 1413)">
<title>G</title>
<polygon fill="black" stroke="none" points="-4,4 -4,-1413 1189.25,-1413 1189.25,4 -4,4"/>
<!-- PrimeNetwork -->
<g id="node1" class="node">
<title>PrimeNetwork</title>
<polygon fill="black" stroke="none" points="458.5,-1081.5 458.5,-1405 697.25,-1405 697.25,-1081.5 458.5,-1081.5"/>
<polygon fill="black" stroke="none" points="459.5,-1377.5 459.5,-1404 696.25,-1404 696.25,-1377.5 459.5,-1377.5"/>
<polygon fill="none" stroke="white" points="459.5,-1377.5 459.5,-1404 696.25,-1404 696.25,-1377.5 459.5,-1377.5"/>
<text text-anchor="start" x="498" y="-1386.7" font-family="Times,serif" font-size="14.00"> &#160;&#160;&#160;&#160;&#160;&#160;&#160;&#160;&#160;</text>
<text text-anchor="start" x="535.5" y="-1386.7" font-family="Helvetica,sans-Serif" font-weight="bold" font-size="14.00" fill="white">PrimeNetwork</text>
<text text-anchor="start" x="627.75" y="-1386.7" font-family="Times,serif" font-size="14.00"> &#160;&#160;&#160;&#160;&#160;&#160;&#160;</text>
<polygon fill="black" stroke="none" points="459.5,-1082.5 459.5,-1377.5 696.25,-1377.5 696.25,-1082.5 459.5,-1082.5"/>
<polygon fill="none" stroke="white" points="459.5,-1082.5 459.5,-1377.5 696.25,-1377.5 696.25,-1082.5 459.5,-1082.5"/>
<text text-anchor="start" x="466.5" y="-1357.2" font-family="Helvetica,sans-Serif" font-size="14.00" fill="white">+FEDERATOR_ROLE</text>
<text text-anchor="start" x="466.5" y="-1338.2" font-family="Helvetica,sans-Serif" font-size="14.00" fill="white">+VALIDATOR_ROLE</text>
<text text-anchor="start" x="466.5" y="-1319.2" font-family="Helvetica,sans-Serif" font-size="14.00" fill="white">&#45;computeRegistry: IComputeRegistry</text>
<text text-anchor="start" x="466.5" y="-1300.2" font-family="Helvetica,sans-Serif" font-size="14.00" fill="white">&#45;domainRegistry: IDomainRegistry</text>
<text text-anchor="start" x="466.5" y="-1281.2" font-family="Helvetica,sans-Serif" font-size="14.00" fill="white">&#45;stakeManager: IComputeRegistry</text>
<text text-anchor="start" x="466.5" y="-1262.2" font-family="Helvetica,sans-Serif" font-size="14.00" fill="white">&#45;computePool: IComputePool</text>
<text text-anchor="start" x="466.5" y="-1243.2" font-family="Helvetica,sans-Serif" font-size="14.00" fill="white">+whitelistProvider()</text>
<text text-anchor="start" x="466.5" y="-1224.2" font-family="Helvetica,sans-Serif" font-size="14.00" fill="white">+blacklistProvider()</text>
<text text-anchor="start" x="466.5" y="-1205.2" font-family="Helvetica,sans-Serif" font-size="14.00" fill="white">+validateNode()</text>
<text text-anchor="start" x="466.5" y="-1186.2" font-family="Helvetica,sans-Serif" font-size="14.00" fill="white">+invalidateNode()</text>
<text text-anchor="start" x="466.5" y="-1167.2" font-family="Helvetica,sans-Serif" font-size="14.00" fill="white">+registerProvider()</text>
<text text-anchor="start" x="466.5" y="-1148.2" font-family="Helvetica,sans-Serif" font-size="14.00" fill="white">+deregisterProvider()</text>
<text text-anchor="start" x="466.5" y="-1129.2" font-family="Helvetica,sans-Serif" font-size="14.00" fill="white">+addComputeNode()</text>
<text text-anchor="start" x="466.5" y="-1110.2" font-family="Helvetica,sans-Serif" font-size="14.00" fill="white">+removeComputeNode()</text>
<text text-anchor="start" x="466.5" y="-1091.2" font-family="Helvetica,sans-Serif" font-size="14.00" fill="white">+slash()</text>
<polygon fill="white" stroke="white" points="464.5,-1334.5 464.5,-1334.5 691.25,-1334.5 691.25,-1334.5 464.5,-1334.5"/>
<polygon fill="white" stroke="white" points="464.5,-1258.5 464.5,-1258.5 691.25,-1258.5 691.25,-1258.5 464.5,-1258.5"/>
<polygon fill="none" stroke="white" points="458.5,-1081.5 458.5,-1405 697.25,-1405 697.25,-1081.5 458.5,-1081.5"/>
</g>
<!-- DomainRegistry -->
<g id="node2" class="node">
<title>DomainRegistry</title>
<polygon fill="black" stroke="none" points="8,-360 8,-493.5 191.75,-493.5 191.75,-360 8,-360"/>
<polygon fill="black" stroke="none" points="9,-466 9,-492.5 190.75,-492.5 190.75,-466 9,-466"/>
<polygon fill="none" stroke="white" points="9,-466 9,-492.5 190.75,-492.5 190.75,-466 9,-466"/>
<text text-anchor="start" x="14" y="-475.2" font-family="Times,serif" font-size="14.00"> &#160;&#160;&#160;&#160;&#160;&#160;&#160;&#160;&#160;</text>
<text text-anchor="start" x="51.5" y="-475.2" font-family="Helvetica,sans-Serif" font-weight="bold" font-size="14.00" fill="white">DomainRegistry</text>
<text text-anchor="start" x="155.75" y="-475.2" font-family="Times,serif" font-size="14.00"> &#160;&#160;&#160;&#160;&#160;&#160;&#160;</text>
<polygon fill="black" stroke="none" points="9,-361 9,-466 190.75,-466 190.75,-361 9,-361"/>
<polygon fill="none" stroke="white" points="9,-361 9,-466 190.75,-466 190.75,-361 9,-361"/>
<text text-anchor="start" x="16" y="-445.7" font-family="Helvetica,sans-Serif" font-size="14.00" fill="white">+PRIME_ROLE</text>
<text text-anchor="start" x="16" y="-426.7" font-family="Helvetica,sans-Serif" font-size="14.00" fill="white">&#45;domains: Domain[]</text>
<text text-anchor="start" x="16" y="-407.7" font-family="Helvetica,sans-Serif" font-size="14.00" fill="white">+create()</text>
<text text-anchor="start" x="16" y="-388.7" font-family="Helvetica,sans-Serif" font-size="14.00" fill="white">+updateValidationLogic()</text>
<text text-anchor="start" x="16" y="-369.7" font-family="Helvetica,sans-Serif" font-size="14.00" fill="white">+updateParameters()</text>
<polygon fill="white" stroke="white" points="14,-442 14,-442 185.75,-442 185.75,-442 14,-442"/>
<polygon fill="white" stroke="white" points="14,-423 14,-423 185.75,-423 185.75,-423 14,-423"/>
<polygon fill="none" stroke="white" points="8,-360 8,-493.5 191.75,-493.5 191.75,-360 8,-360"/>
</g>
<!-- PrimeNetwork&#45;&gt;DomainRegistry -->
<g id="edge1" class="edge">
<title>PrimeNetwork&#45;&gt;DomainRegistry</title>
<path fill="none" stroke="white" d="M450.5,-1243C299.07,-1243 66.58,-1243 66.58,-1243 66.58,-1243 66.58,-508.92 66.58,-508.92"/>
<polygon fill="none" stroke="white" points="70.08,-508.92 66.58,-498.92 63.08,-508.92 70.08,-508.92"/>
</g>
<!-- StakeManager -->
<g id="node3" class="node">
<title>StakeManager</title>
<polygon fill="black" stroke="none" points="965,-735 965,-906.5 1136.75,-906.5 1136.75,-735 965,-735"/>
<polygon fill="black" stroke="none" points="966,-879 966,-905.5 1135.75,-905.5 1135.75,-879 966,-879"/>
<polygon fill="none" stroke="white" points="966,-879 966,-905.5 1135.75,-905.5 1135.75,-879 966,-879"/>
<text text-anchor="start" x="971" y="-888.2" font-family="Times,serif" font-size="14.00"> &#160;&#160;&#160;&#160;&#160;&#160;&#160;&#160;&#160;</text>
<text text-anchor="start" x="1008.5" y="-888.2" font-family="Helvetica,sans-Serif" font-weight="bold" font-size="14.00" fill="white">StakeManager</text>
<text text-anchor="start" x="1100.75" y="-888.2" font-family="Times,serif" font-size="14.00"> &#160;&#160;&#160;&#160;&#160;&#160;&#160;</text>
<polygon fill="black" stroke="none" points="966,-736 966,-879 1135.75,-879 1135.75,-736 966,-736"/>
<polygon fill="none" stroke="white" points="966,-736 966,-879 1135.75,-879 1135.75,-736 966,-736"/>
<text text-anchor="start" x="973" y="-858.7" font-family="Helvetica,sans-Serif" font-size="14.00" fill="white">+PRIME_ROLE</text>
<text text-anchor="start" x="973" y="-839.7" font-family="Helvetica,sans-Serif" font-size="14.00" fill="white">+stake()</text>
<text text-anchor="start" x="973" y="-820.7" font-family="Helvetica,sans-Serif" font-size="14.00" fill="white">+unstake()</text>
<text text-anchor="start" x="973" y="-801.7" font-family="Helvetica,sans-Serif" font-size="14.00" fill="white">+withdraw()</text>
<text text-anchor="start" x="973" y="-782.7" font-family="Helvetica,sans-Serif" font-size="14.00" fill="white">+slash()</text>
<text text-anchor="start" x="973" y="-763.7" font-family="Helvetica,sans-Serif" font-size="14.00" fill="white">+setStakeMinimum()</text>
<text text-anchor="start" x="973" y="-744.7" font-family="Helvetica,sans-Serif" font-size="14.00" fill="white">+setUnbondingPeriod()</text>
<polygon fill="white" stroke="white" points="971,-855 971,-855 1130.75,-855 1130.75,-855 971,-855"/>
<polygon fill="none" stroke="white" points="965,-735 965,-906.5 1136.75,-906.5 1136.75,-735 965,-735"/>
</g>
<!-- PrimeNetwork&#45;&gt;StakeManager -->
<g id="edge2" class="edge">
<title>PrimeNetwork&#45;&gt;StakeManager</title>
<path fill="none" stroke="white" d="M704.94,-1243C845.04,-1243 1050.88,-1243 1050.88,-1243 1050.88,-1243 1050.88,-921.81 1050.88,-921.81"/>
<polygon fill="none" stroke="white" points="1054.38,-921.81 1050.88,-911.81 1047.38,-921.81 1054.38,-921.81"/>
</g>
<!-- ComputeRegistry -->
<g id="node4" class="node">
<title>ComputeRegistry</title>
<polygon fill="black" stroke="none" points="315.62,-293.5 315.62,-560 630.12,-560 630.12,-293.5 315.62,-293.5"/>
<polygon fill="black" stroke="none" points="316.62,-532.5 316.62,-559 629.12,-559 629.12,-532.5 316.62,-532.5"/>
<polygon fill="none" stroke="white" points="316.62,-532.5 316.62,-559 629.12,-559 629.12,-532.5 316.62,-532.5"/>
<text text-anchor="start" x="382.5" y="-541.7" font-family="Times,serif" font-size="14.00"> &#160;&#160;&#160;&#160;&#160;&#160;&#160;&#160;&#160;</text>
<text text-anchor="start" x="420" y="-541.7" font-family="Helvetica,sans-Serif" font-weight="bold" font-size="14.00" fill="white">ComputeRegistry</text>
<text text-anchor="start" x="533.25" y="-541.7" font-family="Times,serif" font-size="14.00"> &#160;&#160;&#160;&#160;&#160;&#160;&#160;</text>
<polygon fill="black" stroke="none" points="316.62,-294.5 316.62,-532.5 629.12,-532.5 629.12,-294.5 316.62,-294.5"/>
<polygon fill="none" stroke="white" points="316.62,-294.5 316.62,-532.5 629.12,-532.5 629.12,-294.5 316.62,-294.5"/>
<text text-anchor="start" x="323.62" y="-512.2" font-family="Helvetica,sans-Serif" font-size="14.00" fill="white">+PRIME_ROLE</text>
<text text-anchor="start" x="323.62" y="-493.2" font-family="Helvetica,sans-Serif" font-size="14.00" fill="white">+COMPUTE_POOL_ROLE</text>
<text text-anchor="start" x="323.62" y="-474.2" font-family="Helvetica,sans-Serif" font-size="14.00" fill="white">&#45;providers: mapping(address = ComputeProvider)</text>
<text text-anchor="start" x="323.62" y="-455.2" font-family="Helvetica,sans-Serif" font-size="14.00" fill="white">&#45;nodes: mapping(address = ComputeNode)</text>
<text text-anchor="start" x="323.62" y="-436.2" font-family="Helvetica,sans-Serif" font-size="14.00" fill="white">+register()</text>
<text text-anchor="start" x="323.62" y="-417.2" font-family="Helvetica,sans-Serif" font-size="14.00" fill="white">+deregister()</text>
<text text-anchor="start" x="323.62" y="-398.2" font-family="Helvetica,sans-Serif" font-size="14.00" fill="white">+addComputeNode()</text>
<text text-anchor="start" x="323.62" y="-379.2" font-family="Helvetica,sans-Serif" font-size="14.00" fill="white">+removeComputeNode()</text>
<text text-anchor="start" x="323.62" y="-360.2" font-family="Helvetica,sans-Serif" font-size="14.00" fill="white">+setWhitelistStatus()</text>
<text text-anchor="start" x="323.62" y="-341.2" font-family="Helvetica,sans-Serif" font-size="14.00" fill="white">+setNodeValidationStatus()</text>
<text text-anchor="start" x="323.62" y="-322.2" font-family="Helvetica,sans-Serif" font-size="14.00" fill="white">+updateNodeStatus()</text>
<text text-anchor="start" x="323.62" y="-303.2" font-family="Helvetica,sans-Serif" font-size="14.00" fill="white">+setComputePool()</text>
<polygon fill="white" stroke="white" points="321.62,-489.5 321.62,-489.5 624.12,-489.5 624.12,-489.5 321.62,-489.5"/>
<polygon fill="white" stroke="white" points="321.62,-451.5 321.62,-451.5 624.12,-451.5 624.12,-451.5 321.62,-451.5"/>
<polygon fill="none" stroke="white" points="315.62,-293.5 315.62,-560 630.12,-560 630.12,-293.5 315.62,-293.5"/>
</g>
<!-- PrimeNetwork&#45;&gt;ComputeRegistry -->
<g id="edge4" class="edge">
<title>PrimeNetwork&#45;&gt;ComputeRegistry</title>
<path fill="none" stroke="white" d="M523.75,-1077.53C523.75,-1077.53 523.75,-575.31 523.75,-575.31"/>
<polygon fill="none" stroke="white" points="527.25,-575.31 523.75,-565.31 520.25,-575.31 527.25,-575.31"/>
</g>
<!-- ComputePool -->
<g id="node5" class="node">
<title>ComputePool</title>
<polygon fill="black" stroke="none" points="605,-640 605,-1001.5 840.75,-1001.5 840.75,-640 605,-640"/>
<polygon fill="black" stroke="none" points="606,-974 606,-1000.5 839.75,-1000.5 839.75,-974 606,-974"/>
<polygon fill="none" stroke="white" points="606,-974 606,-1000.5 839.75,-1000.5 839.75,-974 606,-974"/>
<text text-anchor="start" x="644.88" y="-983.2" font-family="Times,serif" font-size="14.00"> &#160;&#160;&#160;&#160;&#160;&#160;&#160;&#160;&#160;</text>
<text text-anchor="start" x="682.38" y="-983.2" font-family="Helvetica,sans-Serif" font-weight="bold" font-size="14.00" fill="white">ComputePool</text>
<text text-anchor="start" x="770.88" y="-983.2" font-family="Times,serif" font-size="14.00"> &#160;&#160;&#160;&#160;&#160;&#160;&#160;</text>
<polygon fill="black" stroke="none" points="606,-641 606,-974 839.75,-974 839.75,-641 606,-641"/>
<polygon fill="none" stroke="white" points="606,-641 606,-974 839.75,-974 839.75,-641 606,-641"/>
<text text-anchor="start" x="613" y="-953.7" font-family="Helvetica,sans-Serif" font-size="14.00" fill="white">+PRIME_ROLE</text>
<text text-anchor="start" x="613" y="-934.7" font-family="Helvetica,sans-Serif" font-size="14.00" fill="white">+FEDERATOR_ROLE</text>
<text text-anchor="start" x="613" y="-915.7" font-family="Helvetica,sans-Serif" font-size="14.00" fill="white">&#45;poolIdCounter: uint256</text>
<text text-anchor="start" x="613" y="-896.7" font-family="Helvetica,sans-Serif" font-size="14.00" fill="white">&#45;pools: mapping(uint256 &#45;&gt; PoolInfo)</text>
<text text-anchor="start" x="613" y="-877.7" font-family="Helvetica,sans-Serif" font-size="14.00" fill="white">+createComputePool()</text>
<text text-anchor="start" x="613" y="-858.7" font-family="Helvetica,sans-Serif" font-size="14.00" fill="white">+startComputePool()</text>
<text text-anchor="start" x="613" y="-839.7" font-family="Helvetica,sans-Serif" font-size="14.00" fill="white">+endComputePool()</text>
<text text-anchor="start" x="613" y="-820.7" font-family="Helvetica,sans-Serif" font-size="14.00" fill="white">+joinComputePool()</text>
<text text-anchor="start" x="613" y="-801.7" font-family="Helvetica,sans-Serif" font-size="14.00" fill="white">+leaveComputePool()</text>
<text text-anchor="start" x="613" y="-782.7" font-family="Helvetica,sans-Serif" font-size="14.00" fill="white">+changeComputePool()</text>
<text text-anchor="start" x="613" y="-763.7" font-family="Helvetica,sans-Serif" font-size="14.00" fill="white">+blacklistNode()</text>
<text text-anchor="start" x="613" y="-744.7" font-family="Helvetica,sans-Serif" font-size="14.00" fill="white">+blacklistNodeList()</text>
<text text-anchor="start" x="613" y="-725.7" font-family="Helvetica,sans-Serif" font-size="14.00" fill="white">+blacklistProvider()</text>
<text text-anchor="start" x="613" y="-706.7" font-family="Helvetica,sans-Serif" font-size="14.00" fill="white">+blacklistProviderList()</text>
<text text-anchor="start" x="613" y="-687.7" font-family="Helvetica,sans-Serif" font-size="14.00" fill="white">+ejectNode()</text>
<text text-anchor="start" x="613" y="-668.7" font-family="Helvetica,sans-Serif" font-size="14.00" fill="white">+purgeProvider()</text>
<text text-anchor="start" x="613" y="-649.7" font-family="Helvetica,sans-Serif" font-size="14.00" fill="white">+updateComputeLimit()</text>
<polygon fill="white" stroke="white" points="611,-931 611,-931 834.75,-931 834.75,-931 611,-931"/>
<polygon fill="white" stroke="white" points="611,-893 611,-893 834.75,-893 834.75,-893 611,-893"/>
<polygon fill="none" stroke="white" points="605,-640 605,-1001.5 840.75,-1001.5 840.75,-640 605,-640"/>
</g>
<!-- PrimeNetwork&#45;&gt;ComputePool -->
<g id="edge3" class="edge">
<title>PrimeNetwork&#45;&gt;ComputePool</title>
<path fill="none" stroke="white" d="M651.12,-1077.78C651.12,-1077.78 651.12,-1016.66 651.12,-1016.66"/>
<polygon fill="none" stroke="white" points="654.63,-1016.66 651.13,-1006.66 647.63,-1016.66 654.63,-1016.66"/>
</g>
<!-- ComputePool&#45;&gt;DomainRegistry -->
<g id="edge9" class="edge">
<title>ComputePool&#45;&gt;DomainRegistry</title>
<path fill="none" stroke="white" d="M597.09,-821C423.9,-821 133.17,-821 133.17,-821 133.17,-821 133.17,-508.75 133.17,-508.75"/>
<polygon fill="none" stroke="white" points="136.67,-508.75 133.17,-498.75 129.67,-508.75 136.67,-508.75"/>
</g>
<!-- ComputePool&#45;&gt;ComputeRegistry -->
<g id="edge8" class="edge">
<title>ComputePool&#45;&gt;ComputeRegistry</title>
<path fill="none" stroke="white" d="M617.56,-624.64C617.56,-624.64 617.56,-575.46 617.56,-575.46"/>
<polygon fill="white" stroke="white" points="614.06,-624.64 617.56,-634.64 621.06,-624.64 614.06,-624.64"/>
<polygon fill="none" stroke="white" points="621.06,-575.46 617.56,-565.46 614.06,-575.46 621.06,-575.46"/>
</g>
<!-- RewardsDistributorFixedFactory -->
<g id="node6" class="node">
<title>RewardsDistributorFixedFactory</title>
<polygon fill="black" stroke="none" points="754.12,-379 754.12,-474.5 1043.62,-474.5 1043.62,-379 754.12,-379"/>
<polygon fill="black" stroke="none" points="755.12,-447 755.12,-473.5 1042.62,-473.5 1042.62,-447 755.12,-447"/>
<polygon fill="none" stroke="white" points="755.12,-447 755.12,-473.5 1042.62,-473.5 1042.62,-447 755.12,-447"/>
<text text-anchor="start" x="760.12" y="-456.2" font-family="Times,serif" font-size="14.00"> &#160;&#160;&#160;&#160;&#160;&#160;&#160;&#160;&#160;</text>
<text text-anchor="start" x="797.62" y="-456.2" font-family="Helvetica,sans-Serif" font-weight="bold" font-size="14.00" fill="white">RewardsDistributorFixedFactory</text>
<text text-anchor="start" x="1007.62" y="-456.2" font-family="Times,serif" font-size="14.00"> &#160;&#160;&#160;&#160;&#160;&#160;&#160;</text>
<polygon fill="black" stroke="none" points="755.12,-380 755.12,-447 1042.62,-447 1042.62,-380 755.12,-380"/>
<polygon fill="none" stroke="white" points="755.12,-380 755.12,-447 1042.62,-447 1042.62,-380 755.12,-380"/>
<text text-anchor="start" x="762.12" y="-426.7" font-family="Helvetica,sans-Serif" font-size="14.00" fill="white">+REWARD_CREATOR</text>
<text text-anchor="start" x="762.12" y="-407.7" font-family="Helvetica,sans-Serif" font-size="14.00" fill="white">&#45;computePool: IComputePool</text>
<text text-anchor="start" x="762.12" y="-388.7" font-family="Helvetica,sans-Serif" font-size="14.00" fill="white">+createRewardsDistributor()</text>
<polygon fill="white" stroke="white" points="760.12,-423 760.12,-423 1037.62,-423 1037.62,-423 760.12,-423"/>
<polygon fill="white" stroke="white" points="760.12,-404 760.12,-404 1037.62,-404 1037.62,-404 760.12,-404"/>
<polygon fill="none" stroke="white" points="754.12,-379 754.12,-474.5 1043.62,-474.5 1043.62,-379 754.12,-379"/>
</g>
<!-- ComputePool&#45;&gt;RewardsDistributorFixedFactory -->
<g id="edge5" class="edge">
<title>ComputePool&#45;&gt;RewardsDistributorFixedFactory</title>
<path fill="none" stroke="white" d="M797.44,-636.15C797.44,-636.15 797.44,-489.92 797.44,-489.92"/>
<polygon fill="none" stroke="white" points="800.94,-489.92 797.44,-479.92 793.94,-489.92 800.94,-489.92"/>
</g>
<!-- RewardsDistributorFixed -->
<g id="node7" class="node">
<title>RewardsDistributorFixed</title>
<polygon fill="black" stroke="none" points="936.5,-4 936.5,-213.5 1177.25,-213.5 1177.25,-4 936.5,-4"/>
<polygon fill="black" stroke="none" points="937.5,-186 937.5,-212.5 1176.25,-212.5 1176.25,-186 937.5,-186"/>
<polygon fill="none" stroke="white" points="937.5,-186 937.5,-212.5 1176.25,-212.5 1176.25,-186 937.5,-186"/>
<text text-anchor="start" x="942.5" y="-195.2" font-family="Times,serif" font-size="14.00"> &#160;&#160;&#160;&#160;&#160;&#160;&#160;&#160;&#160;</text>
<text text-anchor="start" x="980" y="-195.2" font-family="Helvetica,sans-Serif" font-weight="bold" font-size="14.00" fill="white">RewardsDistributorFixed</text>
<text text-anchor="start" x="1141.25" y="-195.2" font-family="Times,serif" font-size="14.00"> &#160;&#160;&#160;&#160;&#160;&#160;&#160;</text>
<polygon fill="black" stroke="none" points="937.5,-5 937.5,-186 1176.25,-186 1176.25,-5 937.5,-5"/>
<polygon fill="none" stroke="white" points="937.5,-5 937.5,-186 1176.25,-186 1176.25,-5 937.5,-5"/>
<text text-anchor="start" x="944.5" y="-165.7" font-family="Helvetica,sans-Serif" font-size="14.00" fill="white">+PRIME_ROLE</text>
<text text-anchor="start" x="944.5" y="-146.7" font-family="Helvetica,sans-Serif" font-size="14.00" fill="white">+FEDERATOR_ROLE</text>
<text text-anchor="start" x="944.5" y="-127.7" font-family="Helvetica,sans-Serif" font-size="14.00" fill="white">+REWARDS_MANAGER_ROLE</text>
<text text-anchor="start" x="944.5" y="-108.7" font-family="Helvetica,sans-Serif" font-size="14.00" fill="white">&#45;computePool: IComputePool</text>
<text text-anchor="start" x="944.5" y="-89.7" font-family="Helvetica,sans-Serif" font-size="14.00" fill="white">&#45;computeRegistry: IComputeRegistry</text>
<text text-anchor="start" x="944.5" y="-70.7" font-family="Helvetica,sans-Serif" font-size="14.00" fill="white">+joinPool()</text>
<text text-anchor="start" x="944.5" y="-51.7" font-family="Helvetica,sans-Serif" font-size="14.00" fill="white">+leavePool()</text>
<text text-anchor="start" x="944.5" y="-32.7" font-family="Helvetica,sans-Serif" font-size="14.00" fill="white">+claimRewards()</text>
<text text-anchor="start" x="944.5" y="-13.7" font-family="Helvetica,sans-Serif" font-size="14.00" fill="white">+endRewards()</text>
<polygon fill="white" stroke="white" points="942.5,-124 942.5,-124 1171.25,-124 1171.25,-124 942.5,-124"/>
<polygon fill="white" stroke="white" points="942.5,-86 942.5,-86 1171.25,-86 1171.25,-86 942.5,-86"/>
<polygon fill="none" stroke="white" points="936.5,-4 936.5,-213.5 1177.25,-213.5 1177.25,-4 936.5,-4"/>
</g>
<!-- RewardsDistributorFixedFactory&#45;&gt;RewardsDistributorFixed -->
<g id="edge6" class="edge">
<title>RewardsDistributorFixedFactory&#45;&gt;RewardsDistributorFixed</title>
<path fill="none" stroke="white" d="M990.06,-375.3C990.06,-375.3 990.06,-228.97 990.06,-228.97"/>
<polygon fill="none" stroke="white" points="993.56,-228.97 990.06,-218.97 986.56,-228.97 993.56,-228.97"/>
</g>
<!-- RewardsDistributorFixed&#45;&gt;ComputePool -->
<g id="edge7" class="edge">
<title>RewardsDistributorFixed&#45;&gt;ComputePool</title>
<path fill="none" stroke="white" d="M1098.19,-228.8C1098.19,-228.8 1098.19,-684 1098.19,-684 1098.19,-684 860.15,-684 860.15,-684"/>
<polygon fill="white" stroke="white" points="1101.69,-228.8 1098.19,-218.8 1094.69,-228.8 1101.69,-228.8"/>
<polygon fill="none" stroke="white" points="860.15,-680.5 850.15,-684 860.15,-687.5 860.15,-680.5"/>
</g>
</g>
</svg>
